<mxfile host="Electron" modified="2024-05-30T14:52:37.506Z" agent="Mozilla/5.0 (Windows NT 10.0; Win64; x64) AppleWebKit/537.36 (KHTML, like Gecko) draw.io/22.1.16 Chrome/120.0.6099.109 Electron/28.1.0 Safari/537.36" etag="LLmRNDEBtlszFMa4IQNR" version="22.1.16" type="device">
  <diagram id="C5RBs43oDa-KdzZeNtuy" name="Page-1">
    <mxGraphModel dx="1421" dy="2122" grid="1" gridSize="10" guides="1" tooltips="1" connect="1" arrows="1" fold="1" page="1" pageScale="1" pageWidth="827" pageHeight="1169" math="0" shadow="0">
      <root>
        <mxCell id="WIyWlLk6GJQsqaUBKTNV-0" />
        <mxCell id="WIyWlLk6GJQsqaUBKTNV-1" parent="WIyWlLk6GJQsqaUBKTNV-0" />
        <mxCell id="PDwzSPnM38K55kqTYbUt-0" style="edgeStyle=orthogonalEdgeStyle;rounded=0;orthogonalLoop=1;jettySize=auto;html=1;exitX=0.5;exitY=1;exitDx=0;exitDy=0;" parent="WIyWlLk6GJQsqaUBKTNV-1" source="WIyWlLk6GJQsqaUBKTNV-3" target="PDwzSPnM38K55kqTYbUt-1" edge="1">
          <mxGeometry relative="1" as="geometry">
            <mxPoint x="305" y="190" as="targetPoint" />
          </mxGeometry>
        </mxCell>
        <mxCell id="WIyWlLk6GJQsqaUBKTNV-3" value="调用start_accept,从客户端收到一个新的连接" style="rounded=1;whiteSpace=wrap;html=1;fontSize=12;glass=0;strokeWidth=1;shadow=0;" parent="WIyWlLk6GJQsqaUBKTNV-1" vertex="1">
          <mxGeometry x="225.01" y="210" width="160" height="60" as="geometry" />
        </mxCell>
        <mxCell id="AsWRuGdlwKQYSqbX96Rr-0" style="edgeStyle=orthogonalEdgeStyle;rounded=0;orthogonalLoop=1;jettySize=auto;html=1;exitX=0.5;exitY=1;exitDx=0;exitDy=0;entryX=0.5;entryY=0;entryDx=0;entryDy=0;" edge="1" parent="WIyWlLk6GJQsqaUBKTNV-1" source="PDwzSPnM38K55kqTYbUt-1" target="AsWRuGdlwKQYSqbX96Rr-12">
          <mxGeometry relative="1" as="geometry">
            <mxPoint x="450" y="430" as="targetPoint" />
            <Array as="points">
              <mxPoint x="305" y="460" />
              <mxPoint x="305" y="460" />
            </Array>
          </mxGeometry>
        </mxCell>
        <mxCell id="PDwzSPnM38K55kqTYbUt-1" value="此时会创建1个新的Session,将客户端的信息给到socket,执行完调用回调函数hand_accept()" style="rounded=0;whiteSpace=wrap;html=1;" parent="WIyWlLk6GJQsqaUBKTNV-1" vertex="1">
          <mxGeometry x="218.13" y="320" width="173.75" height="70" as="geometry" />
        </mxCell>
        <mxCell id="AsWRuGdlwKQYSqbX96Rr-2" style="edgeStyle=orthogonalEdgeStyle;rounded=0;orthogonalLoop=1;jettySize=auto;html=1;exitX=0.5;exitY=1;exitDx=0;exitDy=0;" edge="1" parent="WIyWlLk6GJQsqaUBKTNV-1" source="AsWRuGdlwKQYSqbX96Rr-1" target="AsWRuGdlwKQYSqbX96Rr-18">
          <mxGeometry relative="1" as="geometry">
            <mxPoint x="305" y="810" as="targetPoint" />
          </mxGeometry>
        </mxCell>
        <mxCell id="AsWRuGdlwKQYSqbX96Rr-21" style="edgeStyle=orthogonalEdgeStyle;rounded=0;orthogonalLoop=1;jettySize=auto;html=1;exitX=1;exitY=0.5;exitDx=0;exitDy=0;" edge="1" parent="WIyWlLk6GJQsqaUBKTNV-1" source="AsWRuGdlwKQYSqbX96Rr-1" target="AsWRuGdlwKQYSqbX96Rr-22">
          <mxGeometry relative="1" as="geometry">
            <mxPoint x="540" y="655.1515151515155" as="targetPoint" />
          </mxGeometry>
        </mxCell>
        <mxCell id="AsWRuGdlwKQYSqbX96Rr-1" value="新建立的Session会调用start()函数开始读写操作" style="rounded=0;whiteSpace=wrap;html=1;" vertex="1" parent="WIyWlLk6GJQsqaUBKTNV-1">
          <mxGeometry x="220" y="620" width="170" height="70" as="geometry" />
        </mxCell>
        <mxCell id="AsWRuGdlwKQYSqbX96Rr-11" style="edgeStyle=orthogonalEdgeStyle;rounded=0;orthogonalLoop=1;jettySize=auto;html=1;entryX=0.5;entryY=0;entryDx=0;entryDy=0;" edge="1" parent="WIyWlLk6GJQsqaUBKTNV-1" source="AsWRuGdlwKQYSqbX96Rr-10" target="WIyWlLk6GJQsqaUBKTNV-3">
          <mxGeometry relative="1" as="geometry" />
        </mxCell>
        <mxCell id="AsWRuGdlwKQYSqbX96Rr-10" value="调用Sever构造端点，打印端口号，并调用start_accept()" style="rounded=0;whiteSpace=wrap;html=1;" vertex="1" parent="WIyWlLk6GJQsqaUBKTNV-1">
          <mxGeometry x="208.75" y="90" width="192.5" height="80" as="geometry" />
        </mxCell>
        <mxCell id="AsWRuGdlwKQYSqbX96Rr-13" style="edgeStyle=orthogonalEdgeStyle;rounded=0;orthogonalLoop=1;jettySize=auto;html=1;exitX=0.5;exitY=1;exitDx=0;exitDy=0;" edge="1" parent="WIyWlLk6GJQsqaUBKTNV-1" source="AsWRuGdlwKQYSqbX96Rr-12" target="AsWRuGdlwKQYSqbX96Rr-1">
          <mxGeometry relative="1" as="geometry" />
        </mxCell>
        <mxCell id="AsWRuGdlwKQYSqbX96Rr-15" style="edgeStyle=orthogonalEdgeStyle;rounded=0;orthogonalLoop=1;jettySize=auto;html=1;exitX=1;exitY=0.5;exitDx=0;exitDy=0;entryX=0;entryY=0.5;entryDx=0;entryDy=0;" edge="1" parent="WIyWlLk6GJQsqaUBKTNV-1" source="AsWRuGdlwKQYSqbX96Rr-12" target="AsWRuGdlwKQYSqbX96Rr-16">
          <mxGeometry relative="1" as="geometry">
            <mxPoint x="510" y="500" as="targetPoint" />
          </mxGeometry>
        </mxCell>
        <mxCell id="AsWRuGdlwKQYSqbX96Rr-12" value="是否存在报错？" style="rhombus;whiteSpace=wrap;html=1;" vertex="1" parent="WIyWlLk6GJQsqaUBKTNV-1">
          <mxGeometry x="222.5" y="460" width="165" height="80" as="geometry" />
        </mxCell>
        <mxCell id="AsWRuGdlwKQYSqbX96Rr-14" value="否" style="text;html=1;align=center;verticalAlign=middle;resizable=0;points=[];autosize=1;strokeColor=none;fillColor=none;" vertex="1" parent="WIyWlLk6GJQsqaUBKTNV-1">
          <mxGeometry x="240" y="558" width="40" height="30" as="geometry" />
        </mxCell>
        <mxCell id="AsWRuGdlwKQYSqbX96Rr-16" value="打印报错信息，并将session清除" style="rounded=0;whiteSpace=wrap;html=1;" vertex="1" parent="WIyWlLk6GJQsqaUBKTNV-1">
          <mxGeometry x="530" y="470" width="120" height="60" as="geometry" />
        </mxCell>
        <mxCell id="AsWRuGdlwKQYSqbX96Rr-17" value="是" style="text;html=1;align=center;verticalAlign=middle;resizable=0;points=[];autosize=1;strokeColor=none;fillColor=none;" vertex="1" parent="WIyWlLk6GJQsqaUBKTNV-1">
          <mxGeometry x="470" y="468" width="40" height="30" as="geometry" />
        </mxCell>
        <mxCell id="AsWRuGdlwKQYSqbX96Rr-19" style="edgeStyle=orthogonalEdgeStyle;rounded=0;orthogonalLoop=1;jettySize=auto;html=1;exitX=0.5;exitY=1;exitDx=0;exitDy=0;" edge="1" parent="WIyWlLk6GJQsqaUBKTNV-1" source="AsWRuGdlwKQYSqbX96Rr-18" target="WIyWlLk6GJQsqaUBKTNV-3">
          <mxGeometry relative="1" as="geometry">
            <mxPoint x="305" y="830.0000000000005" as="targetPoint" />
            <Array as="points">
              <mxPoint x="305" y="810" />
              <mxPoint x="150" y="810" />
              <mxPoint x="150" y="240" />
            </Array>
          </mxGeometry>
        </mxCell>
        <mxCell id="AsWRuGdlwKQYSqbX96Rr-18" value="将新的session插入队列并给到session唯一的uuid" style="rounded=0;whiteSpace=wrap;html=1;" vertex="1" parent="WIyWlLk6GJQsqaUBKTNV-1">
          <mxGeometry x="245" y="730" width="120" height="60" as="geometry" />
        </mxCell>
        <mxCell id="AsWRuGdlwKQYSqbX96Rr-23" style="edgeStyle=orthogonalEdgeStyle;rounded=0;orthogonalLoop=1;jettySize=auto;html=1;exitX=0.5;exitY=1;exitDx=0;exitDy=0;" edge="1" parent="WIyWlLk6GJQsqaUBKTNV-1" source="AsWRuGdlwKQYSqbX96Rr-22" target="AsWRuGdlwKQYSqbX96Rr-25">
          <mxGeometry relative="1" as="geometry">
            <mxPoint x="570" y="720" as="targetPoint" />
          </mxGeometry>
        </mxCell>
        <mxCell id="AsWRuGdlwKQYSqbX96Rr-22" value="调用start(),将data清空，并进行异步读，执行完调用回调读" style="rounded=0;whiteSpace=wrap;html=1;" vertex="1" parent="WIyWlLk6GJQsqaUBKTNV-1">
          <mxGeometry x="480" y="625.1515151515155" width="120" height="60" as="geometry" />
        </mxCell>
        <mxCell id="AsWRuGdlwKQYSqbX96Rr-31" style="edgeStyle=orthogonalEdgeStyle;rounded=0;orthogonalLoop=1;jettySize=auto;html=1;exitX=0.5;exitY=1;exitDx=0;exitDy=0;entryX=0.5;entryY=0;entryDx=0;entryDy=0;" edge="1" parent="WIyWlLk6GJQsqaUBKTNV-1" source="AsWRuGdlwKQYSqbX96Rr-24" target="AsWRuGdlwKQYSqbX96Rr-32">
          <mxGeometry relative="1" as="geometry">
            <mxPoint x="540.1212121212122" y="930" as="targetPoint" />
          </mxGeometry>
        </mxCell>
        <mxCell id="AsWRuGdlwKQYSqbX96Rr-24" value="打印收到的消息，然后异步读更多数据，同时调用异步写函数，执行完调用回调写函数" style="rounded=0;whiteSpace=wrap;html=1;" vertex="1" parent="WIyWlLk6GJQsqaUBKTNV-1">
          <mxGeometry x="455" y="830" width="170" height="60" as="geometry" />
        </mxCell>
        <mxCell id="AsWRuGdlwKQYSqbX96Rr-29" style="edgeStyle=orthogonalEdgeStyle;rounded=0;orthogonalLoop=1;jettySize=auto;html=1;exitX=0.5;exitY=1;exitDx=0;exitDy=0;" edge="1" parent="WIyWlLk6GJQsqaUBKTNV-1" source="AsWRuGdlwKQYSqbX96Rr-25" target="AsWRuGdlwKQYSqbX96Rr-24">
          <mxGeometry relative="1" as="geometry" />
        </mxCell>
        <mxCell id="AsWRuGdlwKQYSqbX96Rr-25" value="是否报错" style="rhombus;whiteSpace=wrap;html=1;" vertex="1" parent="WIyWlLk6GJQsqaUBKTNV-1">
          <mxGeometry x="500" y="720" width="80" height="80" as="geometry" />
        </mxCell>
        <mxCell id="AsWRuGdlwKQYSqbX96Rr-26" style="edgeStyle=orthogonalEdgeStyle;rounded=0;orthogonalLoop=1;jettySize=auto;html=1;entryX=0;entryY=0.5;entryDx=0;entryDy=0;exitX=1;exitY=0.5;exitDx=0;exitDy=0;" edge="1" parent="WIyWlLk6GJQsqaUBKTNV-1" target="AsWRuGdlwKQYSqbX96Rr-27" source="AsWRuGdlwKQYSqbX96Rr-25">
          <mxGeometry relative="1" as="geometry">
            <mxPoint x="740" y="770" as="targetPoint" />
            <mxPoint x="600" y="760" as="sourcePoint" />
          </mxGeometry>
        </mxCell>
        <mxCell id="AsWRuGdlwKQYSqbX96Rr-27" value="打印报错信息，并将session清除" style="rounded=0;whiteSpace=wrap;html=1;" vertex="1" parent="WIyWlLk6GJQsqaUBKTNV-1">
          <mxGeometry x="680" y="730" width="120" height="60" as="geometry" />
        </mxCell>
        <mxCell id="AsWRuGdlwKQYSqbX96Rr-28" value="是" style="text;html=1;align=center;verticalAlign=middle;resizable=0;points=[];autosize=1;strokeColor=none;fillColor=none;" vertex="1" parent="WIyWlLk6GJQsqaUBKTNV-1">
          <mxGeometry x="630" y="738" width="40" height="30" as="geometry" />
        </mxCell>
        <mxCell id="AsWRuGdlwKQYSqbX96Rr-30" value="否" style="text;html=1;align=center;verticalAlign=middle;resizable=0;points=[];autosize=1;strokeColor=none;fillColor=none;" vertex="1" parent="WIyWlLk6GJQsqaUBKTNV-1">
          <mxGeometry x="500" y="798" width="40" height="30" as="geometry" />
        </mxCell>
        <mxCell id="AsWRuGdlwKQYSqbX96Rr-36" style="edgeStyle=orthogonalEdgeStyle;rounded=0;orthogonalLoop=1;jettySize=auto;html=1;exitX=0.5;exitY=1;exitDx=0;exitDy=0;" edge="1" parent="WIyWlLk6GJQsqaUBKTNV-1" source="AsWRuGdlwKQYSqbX96Rr-32" target="AsWRuGdlwKQYSqbX96Rr-38">
          <mxGeometry relative="1" as="geometry">
            <mxPoint x="540.4000000000001" y="1080" as="targetPoint" />
          </mxGeometry>
        </mxCell>
        <mxCell id="AsWRuGdlwKQYSqbX96Rr-32" value="是否报错" style="rhombus;whiteSpace=wrap;html=1;" vertex="1" parent="WIyWlLk6GJQsqaUBKTNV-1">
          <mxGeometry x="500" y="940" width="80" height="80" as="geometry" />
        </mxCell>
        <mxCell id="AsWRuGdlwKQYSqbX96Rr-33" style="edgeStyle=orthogonalEdgeStyle;rounded=0;orthogonalLoop=1;jettySize=auto;html=1;entryX=0;entryY=0.5;entryDx=0;entryDy=0;exitX=1;exitY=0.5;exitDx=0;exitDy=0;" edge="1" parent="WIyWlLk6GJQsqaUBKTNV-1" source="AsWRuGdlwKQYSqbX96Rr-32" target="AsWRuGdlwKQYSqbX96Rr-34">
          <mxGeometry relative="1" as="geometry">
            <mxPoint x="740" y="990" as="targetPoint" />
            <mxPoint x="600" y="980" as="sourcePoint" />
          </mxGeometry>
        </mxCell>
        <mxCell id="AsWRuGdlwKQYSqbX96Rr-34" value="打印报错信息，并将session清除" style="rounded=0;whiteSpace=wrap;html=1;" vertex="1" parent="WIyWlLk6GJQsqaUBKTNV-1">
          <mxGeometry x="680" y="950" width="120" height="60" as="geometry" />
        </mxCell>
        <mxCell id="AsWRuGdlwKQYSqbX96Rr-35" value="是" style="text;html=1;align=center;verticalAlign=middle;resizable=0;points=[];autosize=1;strokeColor=none;fillColor=none;" vertex="1" parent="WIyWlLk6GJQsqaUBKTNV-1">
          <mxGeometry x="630" y="958" width="40" height="30" as="geometry" />
        </mxCell>
        <mxCell id="AsWRuGdlwKQYSqbX96Rr-37" value="否" style="text;html=1;align=center;verticalAlign=middle;resizable=0;points=[];autosize=1;strokeColor=none;fillColor=none;" vertex="1" parent="WIyWlLk6GJQsqaUBKTNV-1">
          <mxGeometry x="510" y="1038" width="40" height="30" as="geometry" />
        </mxCell>
        <mxCell id="AsWRuGdlwKQYSqbX96Rr-39" style="edgeStyle=orthogonalEdgeStyle;rounded=0;orthogonalLoop=1;jettySize=auto;html=1;entryX=0;entryY=0.5;entryDx=0;entryDy=0;" edge="1" parent="WIyWlLk6GJQsqaUBKTNV-1" source="AsWRuGdlwKQYSqbX96Rr-38" target="AsWRuGdlwKQYSqbX96Rr-25">
          <mxGeometry relative="1" as="geometry">
            <mxPoint x="430" y="960" as="targetPoint" />
            <Array as="points">
              <mxPoint x="430" y="1110" />
              <mxPoint x="430" y="760" />
            </Array>
          </mxGeometry>
        </mxCell>
        <mxCell id="AsWRuGdlwKQYSqbX96Rr-40" value="此时为新连接的数据" style="edgeLabel;html=1;align=center;verticalAlign=middle;resizable=0;points=[];" vertex="1" connectable="0" parent="AsWRuGdlwKQYSqbX96Rr-39">
          <mxGeometry x="-0.4565" y="-2" relative="1" as="geometry">
            <mxPoint y="-1" as="offset" />
          </mxGeometry>
        </mxCell>
        <mxCell id="AsWRuGdlwKQYSqbX96Rr-38" value="清空数据数组，调用异步读函数，执行完调用回调写函数" style="rounded=0;whiteSpace=wrap;html=1;" vertex="1" parent="WIyWlLk6GJQsqaUBKTNV-1">
          <mxGeometry x="480.4000000000001" y="1080" width="120" height="60" as="geometry" />
        </mxCell>
        <mxCell id="AsWRuGdlwKQYSqbX96Rr-41" style="edgeStyle=orthogonalEdgeStyle;rounded=0;orthogonalLoop=1;jettySize=auto;html=1;exitX=1;exitY=0.5;exitDx=0;exitDy=0;entryX=0;entryY=0.5;entryDx=0;entryDy=0;" edge="1" parent="WIyWlLk6GJQsqaUBKTNV-1" source="AsWRuGdlwKQYSqbX96Rr-16" target="WIyWlLk6GJQsqaUBKTNV-3">
          <mxGeometry relative="1" as="geometry">
            <Array as="points">
              <mxPoint x="670" y="500" />
              <mxPoint x="670" y="-70" />
              <mxPoint x="150" y="-70" />
              <mxPoint x="150" y="240" />
            </Array>
          </mxGeometry>
        </mxCell>
        <mxCell id="AsWRuGdlwKQYSqbX96Rr-45" style="edgeStyle=orthogonalEdgeStyle;rounded=0;orthogonalLoop=1;jettySize=auto;html=1;" edge="1" parent="WIyWlLk6GJQsqaUBKTNV-1" source="AsWRuGdlwKQYSqbX96Rr-44" target="AsWRuGdlwKQYSqbX96Rr-10">
          <mxGeometry relative="1" as="geometry" />
        </mxCell>
        <mxCell id="AsWRuGdlwKQYSqbX96Rr-44" value="客户端发来一条连接请求" style="rounded=0;whiteSpace=wrap;html=1;" vertex="1" parent="WIyWlLk6GJQsqaUBKTNV-1">
          <mxGeometry x="245.01" width="120" height="50" as="geometry" />
        </mxCell>
      </root>
    </mxGraphModel>
  </diagram>
</mxfile>
